<svg width="60" height="60" viewBox="0 0 60 60" fill="none" xmlns="http://www.w3.org/2000/svg">
<path d="M37.7344 48.75C37.7344 52.8926 35.3145 56.25 31.1719 56.25H15.7031C11.5605 56.25 9.14062 52.8926 9.14062 48.75" stroke="#FFF0D3" stroke-width="4.625" stroke-miterlimit="10" stroke-linecap="round"/>
<path d="M39.375 39.375C41.4457 39.375 43.125 41.4738 43.125 44.0625C43.125 46.6512 41.4457 48.75 39.375 48.75H7.5C5.4293 48.75 3.75 46.6512 3.75 44.0625C3.75 41.4738 5.4293 39.375 7.5 39.375" stroke="#FFF0D3" stroke-width="4.625" stroke-miterlimit="10" stroke-linecap="round"/>
<path d="M40.3125 39.375H21.0129C20.7646 39.3751 20.5265 39.4737 20.3508 39.6492L17.2066 42.7934C17.1631 42.8369 17.1114 42.8715 17.0545 42.8951C16.9976 42.9187 16.9366 42.9308 16.875 42.9308C16.8134 42.9308 16.7524 42.9187 16.6955 42.8951C16.6386 42.8715 16.5869 42.8369 16.5434 42.7934L13.3992 39.6492C13.2235 39.4737 12.9854 39.3751 12.7371 39.375H6.5625C5.81658 39.375 5.10121 39.0787 4.57376 38.5512C4.04632 38.0238 3.75 37.3084 3.75 36.5625V36.5625C3.75 35.8166 4.04632 35.1012 4.57376 34.5738C5.10121 34.0463 5.81658 33.75 6.5625 33.75H40.3125C41.0584 33.75 41.7738 34.0463 42.3012 34.5738C42.8287 35.1012 43.125 35.8166 43.125 36.5625C43.125 37.3084 42.8287 38.0238 42.3012 38.5512C41.7738 39.0787 41.0584 39.375 40.3125 39.375Z" stroke="#FFF0D3" stroke-width="4.625" stroke-miterlimit="10" stroke-linecap="round"/>
<path d="M7.5 32.3438V32.318C7.5 25.8727 12.7734 22.5 19.2188 22.5H27.6562C34.1016 22.5 39.375 25.8984 39.375 32.3438V32.318" stroke="#FFF0D3" stroke-width="4.625" stroke-miterlimit="10" stroke-linecap="round"/>
<path d="M28.2422 13.125L29.1141 20.6215" stroke="#FFF0D3" stroke-width="4.625" stroke-miterlimit="10" stroke-linecap="round"/>
<path d="M30 56.25H46.3254C47.2715 56.25 48.1826 55.8924 48.876 55.2489C49.5695 54.6054 49.9942 53.7235 50.0648 52.7801L54.2578 13.125" stroke="#FFF0D3" stroke-width="4.625" stroke-miterlimit="10" stroke-linecap="round"/>
<path d="M43.125 13.125L45 5.625L50.5078 3.75" stroke="#FFF0D3" stroke-width="4.625" stroke-linecap="round" stroke-linejoin="round"/>
<path d="M26.25 13.125H56.25" stroke="#FFF0D3" stroke-width="4.625" stroke-miterlimit="10" stroke-linecap="round"/>
</svg>
