<svg width="64" height="64" viewBox="0 0 64 64" fill="none" xmlns="http://www.w3.org/2000/svg">
<path d="M24.752 47.107L24.917 48.496C23.9805 48.3395 23.0485 48.1575 22.122 47.95L22.156 48.175C23.3752 48.4468 24.6036 48.6753 25.839 48.86L25.645 47.03C24.3775 46.8425 23.1174 46.6087 21.867 46.329C21.879 46.402 21.889 46.476 21.902 46.552C22.847 46.762 23.796 46.949 24.752 47.107Z" fill="#FFF0D3"/>
<path d="M29.549 47.68L29.622 49.057C28.6756 48.9876 27.7313 48.8925 26.79 48.772L26.81 48.992C28.049 49.153 29.292 49.265 30.539 49.335L30.465 47.52C29.1862 47.4494 27.9103 47.3324 26.64 47.169C26.648 47.241 26.655 47.316 26.661 47.389C27.621 47.512 28.583 47.608 29.549 47.68Z" fill="#FFF0D3"/>
<path d="M34.38 47.809L34.359 49.184C33.411 49.204 32.461 49.194 31.511 49.161C31.515 49.233 31.517 49.307 31.519 49.38C32.765 49.426 34.017 49.426 35.263 49.38C35.281 48.776 35.296 48.17 35.313 47.565C34.0324 47.612 32.7506 47.612 31.47 47.565L31.477 47.784C32.443 47.819 33.411 47.827 34.38 47.809Z" fill="#FFF0D3"/>
<path d="M40.142 47.168C38.871 47.33 37.595 47.448 36.318 47.519L36.307 47.74C37.2737 47.6857 38.2387 47.6053 39.201 47.499L39.089 48.881C38.146 48.984 37.2 49.064 36.253 49.116L36.243 49.335C37.4898 49.2667 38.7337 49.1522 39.972 48.992C40.027 48.384 40.083 47.776 40.142 47.168Z" fill="#FFF0D3"/>
<path d="M44.915 46.328C43.665 46.6079 42.4052 46.8417 41.138 47.029C41.13 47.103 41.121 47.176 41.115 47.252C42.0715 47.1075 43.0242 46.9384 43.972 46.745L43.77 48.141C42.839 48.331 41.905 48.497 40.966 48.636C40.958 48.708 40.949 48.783 40.942 48.859C42.1775 48.6748 43.4059 48.4463 44.625 48.174L44.915 46.328Z" fill="#FFF0D3"/>
<path d="M22.255 48.801C23.1714 49.005 24.093 49.1844 25.019 49.339L25.184 50.728C24.2763 50.577 23.373 50.4009 22.475 50.2C22.4877 50.2739 22.4994 50.3479 22.51 50.422C23.692 50.686 24.882 50.908 26.077 51.086C26.013 50.475 25.947 49.867 25.882 49.258C24.653 49.0764 23.4311 48.8493 22.219 48.577C22.233 48.651 22.244 48.727 22.255 48.801Z" fill="#FFF0D3"/>
<path d="M26.869 49.612C27.8 49.731 28.732 49.825 29.667 49.894L29.742 51.269C28.825 51.2032 27.9099 51.1118 26.998 50.995L27.018 51.214C28.218 51.369 29.424 51.48 30.629 51.547C30.606 50.942 30.58 50.335 30.556 49.73C29.3162 49.6627 28.0793 49.5493 26.848 49.39L26.869 49.612Z" fill="#FFF0D3"/>
<path d="M31.529 49.774L31.535 49.995C32.473 50.029 33.411 50.038 34.349 50.019L34.33 51.395C33.41 51.412 32.491 51.404 31.571 51.371L31.578 51.59C32.785 51.633 33.996 51.633 35.204 51.59L35.253 49.775C34.012 49.8192 32.7699 49.8188 31.529 49.774Z" fill="#FFF0D3"/>
<path d="M39.934 49.39C38.7029 49.5488 37.4664 49.6622 36.227 49.73C36.223 49.803 36.221 49.877 36.218 49.951C37.1542 49.8991 38.0889 49.822 39.021 49.72L38.909 51.101C37.996 51.2022 37.0803 51.2779 36.163 51.328C36.158 51.402 36.156 51.474 36.153 51.549C37.3603 51.482 38.5648 51.371 39.764 51.216C39.819 50.606 39.877 49.997 39.934 49.39Z" fill="#FFF0D3"/>
<path d="M44.562 48.576C43.349 48.847 42.127 49.076 40.899 49.257C40.8906 49.3305 40.8833 49.4042 40.877 49.478C41.8047 49.3414 42.7284 49.1787 43.647 48.99L43.445 50.385C42.544 50.571 41.638 50.731 40.728 50.865C40.722 50.938 40.713 51.011 40.706 51.086C41.901 50.908 43.091 50.686 44.272 50.422C44.367 49.807 44.464 49.191 44.562 48.576Z" fill="#FFF0D3"/>
<path d="M22.61 51.046C23.497 51.245 24.388 51.419 25.284 51.567C25.341 52.032 25.395 52.496 25.45 52.959C24.5719 52.8137 23.6982 52.6429 22.83 52.447C22.843 52.522 22.854 52.596 22.865 52.67C24.0068 52.9274 25.158 53.1412 26.316 53.311L26.122 51.485C24.9317 51.3089 23.7482 51.0891 22.574 50.826C22.587 50.899 22.597 50.973 22.61 51.046Z" fill="#FFF0D3"/>
<path d="M27.077 51.832C27.976 51.948 28.88 52.04 29.786 52.105L29.86 53.484C28.9726 53.4207 28.0872 53.3313 27.205 53.216C27.213 53.289 27.219 53.364 27.226 53.437C28.385 53.586 29.551 53.693 30.719 53.757L30.645 51.944C29.4451 51.8766 28.248 51.7662 27.056 51.613C27.062 51.687 27.068 51.76 27.077 51.832Z" fill="#FFF0D3"/>
<path d="M31.588 51.987L31.593 52.204C32.5 52.236 33.41 52.245 34.317 52.228C34.31 52.686 34.305 53.146 34.299 53.604C33.408 53.621 32.518 53.613 31.63 53.582L31.635 53.801C32.806 53.842 33.976 53.842 35.146 53.801C35.161 53.196 35.176 52.591 35.194 51.988C33.9924 52.0302 32.7896 52.0298 31.588 51.987Z" fill="#FFF0D3"/>
<path d="M39.726 51.613C38.5337 51.7663 37.3363 51.8767 36.136 51.944L36.127 52.161C37.034 52.111 37.939 52.034 38.843 51.935L38.731 53.318C37.8469 53.4166 36.9602 53.4903 36.072 53.539L36.063 53.758C37.2305 53.6939 38.3953 53.5871 39.555 53.438L39.726 51.613Z" fill="#FFF0D3"/>
<path d="M44.207 50.825C43.0332 51.0886 41.8501 51.3084 40.66 51.484C40.654 51.557 40.645 51.63 40.637 51.703C41.5361 51.5711 42.4312 51.4127 43.321 51.228L43.117 52.628C42.247 52.805 41.37 52.96 40.49 53.091C40.4813 53.1639 40.4737 53.2369 40.467 53.31C41.6248 53.1405 42.7756 52.9267 43.917 52.669C44.014 52.055 44.109 51.441 44.207 50.825Z" fill="#FFF0D3"/>
<path d="M22.964 53.296C23.821 53.488 24.684 53.656 25.551 53.801L25.716 55.19C24.8677 55.0483 24.0233 54.8836 23.184 54.696L23.219 54.921C24.323 55.169 25.435 55.375 26.553 55.541L26.359 53.712C25.2078 53.5422 24.0633 53.3294 22.928 53.074C22.941 53.1478 22.953 53.2218 22.964 53.296Z" fill="#FFF0D3"/>
<path d="M27.284 54.057C28.155 54.169 29.029 54.257 29.905 54.321C29.93 54.778 29.954 55.238 29.977 55.698C29.1201 55.6353 28.2651 55.5486 27.413 55.438C27.419 55.515 27.427 55.587 27.434 55.663C28.555 55.8063 29.6807 55.9097 30.809 55.973L30.735 54.155C29.5738 54.0922 28.4154 53.9865 27.262 53.838C27.269 53.91 27.278 53.983 27.284 54.057Z" fill="#FFF0D3"/>
<path d="M31.647 54.196L31.653 54.413C32.5309 54.4465 33.4096 54.4545 34.288 54.437C34.281 54.895 34.276 55.353 34.268 55.813C33.409 55.83 32.548 55.82 31.688 55.791L31.694 56.012C32.824 56.053 33.955 56.053 35.086 56.012L35.133 54.197C33.974 54.237 32.808 54.237 31.647 54.196Z" fill="#FFF0D3"/>
<path d="M39.519 53.836C38.3657 53.9846 37.2072 54.0904 36.046 54.153L36.037 54.372C36.9142 54.3251 37.7899 54.2528 38.663 54.155C38.625 54.615 38.588 55.077 38.552 55.537C37.698 55.632 36.84 55.701 35.982 55.75L35.973 55.972C37.1017 55.9092 38.2277 55.8058 39.349 55.662C39.404 55.053 39.462 54.445 39.519 53.836Z" fill="#FFF0D3"/>
<path d="M43.853 53.073C42.7181 53.3286 41.5739 53.5414 40.423 53.711L40.4 53.932C41.27 53.803 42.134 53.651 42.994 53.474L42.792 54.868C41.95 55.042 41.103 55.192 40.253 55.317C40.2435 55.3915 40.2355 55.4662 40.229 55.541C41.3476 55.3754 42.4597 55.1686 43.563 54.921L43.853 53.073Z" fill="#FFF0D3"/>
<path d="M23.318 55.546C24.1467 55.7317 24.9803 55.8944 25.818 56.034L25.983 57.421C25.1639 57.2841 24.3486 57.125 23.538 56.944C23.551 57.018 23.563 57.093 23.573 57.166C24.639 57.405 25.713 57.605 26.793 57.765C26.729 57.158 26.661 56.546 26.597 55.937C25.4852 55.7725 24.3798 55.5674 23.283 55.322L23.318 55.546Z" fill="#FFF0D3"/>
<path d="M27.491 56.278C28.332 56.386 29.178 56.472 30.022 56.535L30.096 57.912C29.2683 57.8506 28.4423 57.7673 27.619 57.662L27.64 57.882C28.721 58.021 29.808 58.121 30.898 58.182C30.874 57.577 30.847 56.97 30.824 56.365C29.7026 56.305 28.5838 56.203 27.47 56.059L27.491 56.278Z" fill="#FFF0D3"/>
<path d="M31.706 56.405L31.712 56.626C32.561 56.656 33.41 56.666 34.257 56.648L34.239 58.022C33.408 58.039 32.577 58.031 31.748 58.001L31.753 58.22C32.845 58.259 33.936 58.259 35.027 58.22C35.043 57.616 35.06 57.011 35.075 56.405C33.9524 56.447 32.8286 56.447 31.706 56.405Z" fill="#FFF0D3"/>
<path d="M39.311 56.059C38.1972 56.203 37.0784 56.305 35.957 56.365L35.948 56.588C36.7954 56.5398 37.6413 56.4694 38.485 56.377L38.373 57.758C37.549 57.85 36.721 57.919 35.893 57.964L35.883 58.183C36.9726 58.1221 38.0596 58.022 39.142 57.883C39.197 57.274 39.255 56.666 39.311 56.059Z" fill="#FFF0D3"/>
<path d="M42.465 57.112C41.652 57.278 40.833 57.423 40.014 57.544C40.006 57.619 39.997 57.691 39.99 57.765C41.0705 57.6058 42.1446 57.406 43.21 57.166C43.306 56.554 43.402 55.937 43.5 55.321C42.4032 55.5663 41.2978 55.7715 40.186 55.936C40.178 56.011 40.17 56.083 40.164 56.159C41.0033 56.0347 41.839 55.887 42.67 55.716L42.465 57.112Z" fill="#FFF0D3"/>
<path d="M54.964 31.171C54.765 29.4 53.785 27.852 52.044 26.558C52.606 24.675 53.379 20.639 51.071 17.371C48.939 14.35 46.313 12.97 43.998 11.752C43.058 11.258 42.168 10.791 41.328 10.232C40.72 9.828 39.89 9.17 39.843 8.587C39.786 7.88 40.59 6.92 41.208 6.104L42.729 4.099L40.382 3.149C40.261 3.103 37.363 2 33.757 2C27.844 2 23.408 4.929 21.11 10.297C21.0689 10.2912 21.0275 10.2876 20.986 10.286C20.8368 10.2772 20.6874 10.2729 20.538 10.273H20.536C16.896 10.273 13.241 12.883 10.995 17.086C8.245 22.233 8.346 28.222 11.253 32.342C11.8656 33.2164 12.5973 34.001 13.427 34.673C13.791 36.077 14.451 37.19 15.334 38.086L15.853 42.137C15.922 43.242 16.536 44.676 18.832 45.757L20.804 56.493C21.118 62 30.019 62 33.391 62C36.763 62 45.665 62 45.979 56.492L47.948 45.758C50.245 44.677 50.858 43.242 50.928 42.137L51.406 38.409C51.697 38.146 51.969 37.864 52.219 37.556C52.631 37.178 55.344 34.55 54.964 31.171ZM23.831 10.796C24.6 8.822 25.964 7.017 27.768 5.774C28.92 4.961 30.227 4.411 31.568 4.081C32.2927 3.96975 33.0248 3.91392 33.758 3.914C37.036 3.914 39.668 4.931 39.668 4.931C38.92 5.92 38.206 6.896 37.89 7.868C37.563 8.871 37.844 9.965 40.634 12.41C41.507 13.175 42.473 13.911 43.432 14.692C45.337 16.262 47.303 17.988 48.77 20.195C50.87 23.354 49.907 26.837 49.868 26.957C49.285 24.828 48.063 23.207 46.586 21.756C44.959 20.153 43.042 18.735 41.131 17.158C40.178 16.363 39.21 15.545 38.295 14.6C37.393 13.655 36.482 12.601 35.926 11.201C35.657 10.506 35.503 9.702 35.61 8.916C35.711 8.15745 36.0182 7.44114 36.498 6.845C36.706 6.594 36.932 6.37 37.162 6.161C36.096 7.01 35.333 7.993 34.918 9.07C34.178 10.883 34.176 12.931 34.621 14.929C35.076 16.933 35.974 18.893 37.269 20.708C38.555 22.543 40.253 24.195 42.343 25.864C39.59 25.799 36.854 24.668 34.7 22.851C32.543 21.035 30.959 18.534 30.346 15.77C29.726 13.039 30.082 9.897 31.953 7.458C32.7457 6.43955 33.7757 5.63067 34.953 5.102C34.668 5.166 34.38 5.224 34.102 5.305C32.321 5.78 30.742 6.626 29.525 7.746C27.06 9.978 26.134 13.352 26.63 16.517C27.104 19.7 28.988 22.664 31.895 24.571C33.204 25.458 34.703 26.1 36.312 26.575C34.267 26.815 32.128 26.951 30.077 26.24C28.21 25.593 26.753 24.307 25.582 22.735C24.3212 21.0424 23.4937 19.0669 23.172 16.981C22.863 14.917 23.061 12.775 23.831 10.796ZM48.983 41.968C48.947 42.994 47.942 43.793 46.215 44.39L46.214 44.394H46.201C43.455 45.339 38.883 45.772 33.389 45.772C27.896 45.772 23.321 45.339 20.576 44.394H20.561C20.561 44.394 23.586 46.968 33.389 46.968C43.172 46.968 46.202 44.404 46.213 44.395L44.033 56.283C43.964 58.942 40.203 60.087 33.388 60.087C26.572 60.087 22.812 58.942 22.743 56.283L20.558 44.389C18.832 43.792 17.829 42.994 17.793 41.968L17.5 39.649C21.377 41.657 27.349 41.67 33.556 41.67C39.842 41.67 45.463 41.646 49.262 39.797L48.983 41.968ZM50.874 36.169L50.862 36.144C48.227 39.738 41.483 39.756 33.555 39.756C24.064 39.756 16.255 39.743 15.185 33.584C14.2771 32.9499 13.4884 32.1604 12.855 31.252C7.746 24.012 13.71 12.186 20.537 12.188C20.637 12.188 20.74 12.191 20.842 12.196C20.182 14.193 19.723 16.416 20.255 18.556C18.126 23.88 20.192 30.046 25.246 32.67C26.24 33.185 27.316 33.598 28.424 33.957L28.434 33.987C28.434 33.987 21.435 37.234 15.964 34.474L15.965 34.475C19.483 39.474 25.658 36.449 28.92 36.51C32.481 36.575 35.069 38.57 43.153 36.697C48.509 35.456 50.237 34.981 51.008 36.039C50.925 36.123 50.874 36.169 50.874 36.169ZM47.516 30.727C46.054 30.447 44.549 30.42 43.038 30.508C41.533 30.6 33.827 33.114 28.127 30.156C26.541 29.333 25.026 28.397 23.846 27.17C22.6883 25.974 21.7629 24.5732 21.117 23.039C20.57 21.643 20.16 20.163 20.287 18.696C20.682 20.138 22.851 23.126 25.514 25.384C30.498 29.613 41.395 27.763 43.107 27.93C44.808 28.094 46.536 28.456 48.103 29.213C49.652 29.963 51.061 31.164 51.572 32.669C50.391 31.575 48.981 30.993 47.516 30.727Z" fill="#FFF0D3"/>
<path d="M20.598 13.001C19.206 13.117 17.863 13.73 16.704 14.558C15.552 15.401 14.61 16.496 13.884 17.702C12.455 20.123 11.858 23.027 12.422 25.872C12.709 27.288 13.298 28.686 14.218 29.892C15.149 31.1078 16.3628 32.0779 17.754 32.718C20.537 33.989 23.583 33.929 26.184 33.123C23.494 32.577 21.001 31.849 19.178 30.511C17.343 29.202 16.274 27.35 15.853 25.265C15.436 23.179 15.642 20.901 16.381 18.757C17.135 16.61 18.389 14.56 20.598 13.001Z" fill="#FFF0D3"/>
</svg>
