<svg width="64" height="64" viewBox="0 0 64 64" fill="none" xmlns="http://www.w3.org/2000/svg">
<path d="M39.842 28.281C39.26 26.549 38.372 25.929 37.345 25.929C36.093 25.929 34.633 26.848 33.26 27.8C32.443 28.368 29.28 31.861 27.555 31.861C27.3573 31.8663 27.163 31.8089 27 31.697C25.316 30.505 27.426 25.311 27.426 22.82C27.426 20.409 26.988 19.488 26.317 19.488C24.462 19.488 20.828 26.551 19.815 28.589C19.529 29.164 19.13 29.391 18.667 29.391C17.048 29.391 14.64 26.606 13.534 26.179C13.369 26.112 13.193 26.0761 13.015 26.073C11.167 26.073 11.207 30.67 11.235 31.89C12.245 31.614 13.192 31.444 14.02 31.444C16.107 31.444 17.434 32.525 17.088 35.698C17.01 36.411 16.559 38.683 17.297 39.184C17.4155 39.261 17.5548 39.2998 17.696 39.295C18.547 39.295 19.895 38.246 20.396 37.926C21.07 37.494 21.777 37.178 22.375 37.178C23.095 37.178 23.657 37.635 23.818 38.9C23.914 39.649 23.547 42.499 24.281 42.954C24.3887 43.0188 24.5123 43.0524 24.638 43.051C25.993 43.051 28.306 39.665 29.353 39.277C29.8446 39.0949 30.3648 39.0025 30.889 39.004C32.282 39.004 33.607 39.619 34.962 40.139C35.19 40.227 35.376 40.265 35.527 40.265C36.346 40.265 36.108 39.128 35.407 38.401C34.386 37.337 32.766 37.804 31.63 37.042C30.187 36.074 32.196 34.129 32.976 33.552C33.907 32.862 35.971 31.753 37.618 31.753C38.381 31.753 39.054 31.991 39.482 32.617C40.291 33.8 38.945 35.294 39.285 36.622C39.428 37.173 39.774 37.363 40.184 37.363C41.057 37.363 42.214 36.501 42.294 36.419C42.8261 35.8661 43.3987 35.3537 44.007 34.886C40.967 34.213 40.709 30.867 39.842 28.281Z" fill="#FFF0D3"/>
<path d="M14.916 25.789C14.916 25.789 17.545 28.108 18.668 28.108C18.883 28.108 19.044 28.023 19.119 27.817C20.735 23.392 24.152 18.335 26.383 18.335C27.356 18.335 28.103 19.298 28.375 21.698C28.727 24.805 26.578 29.514 27.611 30.587C27.6335 30.6098 27.6605 30.6276 27.6903 30.6393C27.7201 30.651 27.752 30.6563 27.784 30.655C28.945 30.655 33.532 24.781 37.458 24.781C37.7601 24.7803 38.0612 24.8176 38.354 24.892C41.891 25.799 40.358 31.83 43.229 33.553C43.7044 33.8426 44.2494 33.9977 44.806 34.002C45.864 34.002 46.83 33.399 47.061 32.152C47.644 29.004 37.646 22.902 43.055 22.902C43.831 22.902 44.924 23.027 46.41 23.305C47.295 17.241 46.986 15.56 46.194 15.56C45.291 15.56 43.759 17.743 42.644 18.119C42.6118 18.1298 42.578 18.1356 42.544 18.136C41.907 18.136 41.929 15.842 40.839 15.842C40.135 15.842 38.968 16.799 36.862 19.945C35.776 21.568 34.963 22.21 34.321 22.21C31.879 22.21 31.948 12.869 29.018 12.869C28.426 12.869 27.712 13.25 26.83 14.165C25.476 15.571 24.212 16.069 23.029 16.069C20.148 16.069 17.761 13.11 15.804 13.11C15.032 13.11 14.325 13.571 13.683 14.859C12.354 17.53 16.854 17.392 14.916 25.789ZM18.359 26.991C17.833 26.755 16.899 26.123 16.023 25.403C16.185 24.61 16.285 23.898 16.343 23.242C16.59 22.828 16.894 22.42 17.265 22.042C18.776 20.501 20.712 20.014 21.661 20.904C20.308 22.769 19.117 25.052 18.359 26.991ZM40.57 23.017C40.076 24.186 41.037 25.42 42.508 27.033C42.4054 27.1451 42.286 27.2406 42.154 27.316C42.0139 27.3937 41.8618 27.4474 41.704 27.475C41.236 25.895 40.451 24.378 38.598 23.903C38.3257 23.8366 38.0479 23.7954 37.768 23.78C37.266 22.148 37.499 20.615 38.45 20.085C39.498 19.498 41.026 20.336 42.069 21.962C41.488 22.073 40.856 22.341 40.57 23.017Z" fill="#FFF0D3"/>
<path d="M48.007 32.174C47.788 33.605 49.868 33.861 48.874 36.205C48.364 37.404 44.045 40.168 44.363 40.773C44.834 41.658 45.4 42.002 45.973 42.002C47.107 42.002 48.262 40.656 48.727 39.49C49.336 37.965 49.493 33.962 50.977 33.22C51.228 33.093 51.476 33.037 51.721 33.037C53.186 33.037 54.555 35.018 55.875 35.286C56.197 33.852 55.967 32.364 56.295 30.922C50.723 30.852 59.391 23.237 54.438 20.13C54.171 19.963 53.947 19.888 53.751 19.889C52.192 19.889 52.555 24.663 48.616 24.663C48.302 24.663 47.959 24.632 47.586 24.566C46.145 24.312 45.15 24.194 44.499 24.194C40.705 24.196 48.622 28.187 48.007 32.174Z" fill="#FFF0D3"/>
<path d="M57.877 24.693C58.0191 23.834 58.0265 22.9582 57.899 22.097C57.541 19.698 55.666 17.746 53.72 17.745C53.055 17.745 51.463 18.022 50.71 20.385C50.2036 20.1734 49.6925 19.9733 49.177 19.785C49.622 16.79 49.455 14.737 48.656 13.688C48.4633 13.4255 48.2113 13.2123 47.9206 13.0656C47.6299 12.919 47.3086 12.843 46.983 12.844C45.937 12.844 44.762 13.544 43.302 15.041L43.249 14.899C42.939 14.061 42.421 12.659 41.031 12.659C40.081 12.659 38.823 13.245 36.179 17.099C35.4122 17.0426 34.6444 17.0016 33.876 16.976L33.734 16.46C32.909 13.431 31.973 9.99899 29.336 9.99799H29.335C28.26 9.99799 27.129 10.631 25.876 11.932C24.943 12.902 24.02 13.373 23.053 13.373C21.874 13.373 20.667 12.697 19.499 12.044C18.318 11.384 17.098 10.701 15.836 10.701C14.34 10.701 13.124 11.618 12.118 13.505C10.969 15.661 11.608 17.085 12.226 18.463C12.496 19.064 12.779 19.701 12.98 20.483C6.283 23.359 2 27.714 2 32.597C2 46.13 15.432 62 32 62C48.569 62 62 46.13 62 32.597C62 29.711 60.482 27.015 57.877 24.693ZM32 59.961C19.389 59.961 8.785 50.065 5.258 39.702C10.217 44.791 20.326 48.278 32 48.278C43.674 48.278 53.781 44.791 58.74 39.703C55.213 50.064 44.61 59.961 32 59.961ZM43.135 42.475C42.894 43.233 42.145 44.385 41.216 45.196C39.782 46.447 38.034 46.716 37.201 45.842C36.501 45.104 36.616 43.733 37.42 42.45C39.066 39.822 41.426 39.246 42.45 39.766C42.43 39.838 42.402 39.907 42.388 39.984C42.246 40.783 42.503 41.621 43.135 42.475ZM58.503 29.627C57.524 29.627 57.053 32.339 56.983 34.044C56.921 35.547 56.487 36.048 55.866 36.048C54.972 36.048 53.69 35.012 52.571 34.426C52.213 34.238 51.938 34.155 51.722 34.155C51.081 34.155 50.964 34.904 50.744 35.964C50.373 37.753 49.931 39.609 48.961 41.152C48.249 42.285 47.148 43.073 46.045 43.073C45.32 43.073 44.594 42.733 43.976 41.928C41.546 38.77 46.884 38.124 47.948 35.959C48.564 34.707 48.367 34.271 47.803 34.271C46.693 34.271 44.162 35.965 43.64 36.444C42.718 37.287 41.659 38.529 40.363 38.529C40.144 38.529 39.917 38.493 39.683 38.414C38.308 37.95 38.115 36.22 38.406 34.935C38.648 33.861 39.205 32.896 37.769 32.841C37.7184 32.839 37.6677 32.838 37.617 32.838C36.692 32.838 35.747 33.142 34.908 33.522C33.89 33.984 32.482 34.81 32.113 36.023C31.998 36.396 34.467 36.785 34.851 36.933C36.775 37.685 37.716 41.306 35.703 41.306C35.443 41.306 35.134 41.245 34.771 41.113C33.509 40.642 32.24 39.976 30.919 39.976C30.485 39.976 30.046 40.048 29.601 40.223C28.679 40.585 28.175 41.618 27.449 42.265C26.375 43.229 25.425 43.747 24.679 43.747C23.651 43.747 23.011 42.763 22.97 40.602C22.934 38.846 22.597 38.277 22.052 38.277C21.08 38.277 19.448 40.092 17.695 40.226C17.644 40.229 17.595 40.231 17.548 40.231C15.209 40.231 16.119 35.784 16.301 34.413C16.5 32.918 15.598 32.387 14.209 32.387C12.648 32.387 10.477 33.057 8.565 33.784C8.657 33.866 8.753 33.938 8.841 34.028C10.591 35.774 11.166 38.077 10.129 39.168C9.09 40.257 6.831 39.724 5.083 37.976C3.335 36.228 2.758 33.925 3.797 32.835C4.684 31.898 6.063 32.213 7.236 32.838C8.769 32.323 10.324 31.874 10.288 31.15C10.015 25.674 11.568 24.652 12.767 24.653C13.224 24.6644 13.6711 24.7891 14.068 25.016C15.15 18.047 11.091 17.574 12.998 13.995C13.901 12.302 14.844 11.724 15.838 11.724C17.975 11.724 20.346 14.395 23.055 14.395C24.174 14.395 25.351 13.938 26.592 12.649C27.705 11.493 28.601 11.02 29.338 11.02C32.635 11.021 32.723 20.49 34.608 20.49C34.97 20.49 35.399 20.141 35.928 19.309C38.693 14.967 40.164 13.68 41.032 13.68C42.298 13.68 42.281 16.418 43.118 16.418C43.29 16.418 43.5 16.301 43.764 16.02C45.153 14.541 46.222 13.864 46.984 13.864C48.781 13.864 48.87 17.625 47.406 23.484C47.406 23.484 47.733 23.567 48.212 23.567C49.233 23.567 50.94 23.192 51.608 20.848C52.029 19.372 52.848 18.766 53.722 18.766C55.102 18.766 56.617 20.276 56.912 22.251C57.449 25.858 55.07 28.413 55.256 29.501C55.288 29.694 55.383 29.77 55.525 29.77C56.058 29.77 57.255 28.685 58.3 28.685C59.079 28.685 59.775 29.29 60.043 31.404C59.431 30.123 58.921 29.627 58.503 29.627Z" fill="#FFF0D3"/>
</svg>
