<svg width="64" height="64" viewBox="0 0 64 64" fill="none" xmlns="http://www.w3.org/2000/svg">
<path d="M59.939 59.705L55.541 43.845C55.4563 43.5538 55.297 43.2899 55.0788 43.0794C54.8605 42.8689 54.591 42.7191 54.297 42.645C53.498 39.788 51.164 31.606 46.606 16.988C42.809 4.81497 32.928 0.83297 24.815 2.28497C16.787 3.72297 11.597 10.166 12.195 17.952L12.69 17.916V20.556C12.3303 20.2663 11.8798 20.1129 11.418 20.123C10.437 20.132 9.64901 20.807 9.65901 21.628C9.66201 21.819 9.86401 22.067 10.164 22.334C6.47601 24.787 3.88201 31.79 4.00401 40.031C4.08001 45.279 6.58501 49.982 9.01101 53.332C6.16101 54.684 4.25301 57.258 4.29501 60.194C4.31401 61.538 5.23101 62 6.48201 62C9.22501 62 13.575 59.777 13.575 59.777C13.575 59.777 17.875 61.857 20.624 61.857C21.929 61.857 22.884 61.388 22.863 60.006C22.822 57.069 20.84 54.535 17.952 53.241C20.281 49.845 22.648 45.091 22.572 39.843C22.457 31.761 19.763 24.93 16.114 22.426C16.503 22.095 16.775 21.784 16.771 21.557C16.759 20.733 15.951 20.074 14.968 20.085C14.5074 20.0844 14.0616 20.2474 13.71 20.545V17.84L14.231 17.802C13.624 9.88897 19.297 5.27997 25.189 4.22497C32.405 2.93297 41.218 6.55397 44.65 17.558C47.908 28.004 50.027 35.153 51.259 39.416C49.278 36.964 45.745 36.058 42.702 37.43C39.162 39.023 37.631 43.087 39.282 46.507C39.466 46.887 39.684 47.239 39.927 47.57L34.501 52.812H32.864V55.242H38.705V52.812H37.986L41.682 49.242C42.7049 49.9199 43.8828 50.328 45.1059 50.428C46.329 50.528 47.5575 50.3168 48.677 49.814C50.1384 49.1628 51.3302 48.0272 52.051 46.599L55.969 60.732C56.223 61.646 57.194 62.187 58.139 61.943L58.686 61.8C59.632 61.555 60.192 60.617 59.939 59.705ZM17.644 49.896C17.269 50.126 16.799 50.271 16.269 50.265C15.001 50.253 14.02 49.54 13.966 48.605C13.941 48.084 12.884 48.095 12.873 48.618C12.855 49.515 11.891 50.329 10.631 50.316C10.1309 50.3173 9.63915 50.1873 9.20501 49.939C8.47096 48.7139 7.84173 47.429 7.32401 46.098C8.055 46.4466 8.85847 46.6163 9.66801 46.593C11.298 46.556 12.663 45.882 13.371 44.907C14.114 45.878 15.495 46.565 17.113 46.526C17.9177 46.5128 18.7099 46.3252 19.435 45.976C18.9515 47.3316 18.3523 48.6431 17.644 49.896ZM19.941 44.326C19.453 45.131 18.385 45.724 17.101 45.717C15.345 45.707 13.952 44.712 13.894 43.432C13.873 42.908 12.791 42.916 12.789 43.44C12.775 44.683 11.412 45.794 9.65601 45.784C8.36301 45.776 7.26901 45.231 6.76001 44.434C6.40903 43.2431 6.18873 42.0175 6.10301 40.779C6.92101 41.501 8.08201 41.966 9.39401 41.934C11.124 41.893 12.575 41.093 13.291 39.947C14.043 41.087 15.514 41.899 17.241 41.858C18.552 41.829 19.699 41.358 20.495 40.637C20.4468 41.8833 20.261 43.1205 19.941 44.326ZM20.816 59.852C20.7521 59.8563 20.6881 59.8583 20.624 59.858C18.978 59.858 15.98 58.708 14.48 57.984L13.55 57.535L12.631 58.005C11.617 58.521 8.31301 60 6.48201 60C6.42801 60 6.37901 59.998 6.33701 59.996C6.38401 58.012 7.73501 56.158 9.90101 55.132L12.073 54.102L10.676 52.174C10.4163 51.8147 10.1643 51.4499 9.92001 51.08C10.154 51.114 10.396 51.133 10.646 51.126C11.847 51.093 12.863 50.627 13.445 49.932C14.051 50.629 15.081 51.11 16.28 51.077C16.527 51.069 16.765 51.042 16.994 51.001C16.746 51.397 16.499 51.775 16.258 52.128L14.918 54.083L17.103 55.062C19.3 56.045 20.707 57.868 20.816 59.852ZM19.642 32.614C18.512 33.904 16.923 34.896 15.072 35.347C12.408 35.995 9.58601 35.577 7.33101 34.232C6.82401 33.929 6.35001 34.635 6.85401 34.935C9.28101 36.384 12.477 36.863 15.336 36.124C17.108 35.669 18.67 34.806 19.875 33.661C20.204 35.28 20.419 37.051 20.495 38.942C20.133 40.118 18.835 41.054 17.227 41.047C15.343 41.038 13.832 39.871 13.776 38.375C13.759 37.854 12.759 37.863 12.754 38.385C12.744 39.84 11.269 41.132 9.38201 41.122C7.76701 41.114 6.43701 40.255 6.04801 39.071C6.11901 32.918 7.79901 27.349 10.423 24.715C10.956 24.18 11.494 23.825 12.032 23.614C12.702 24.008 13.254 24.293 13.254 24.293C13.254 24.293 13.719 24.04 14.309 23.681C16.411 24.63 18.498 27.894 19.642 32.614ZM47.186 46.716C46.7288 46.92 46.2342 47.027 45.7335 47.0303C45.2328 47.0335 44.7369 46.933 44.277 46.735L47.1 44.008L45.357 42.323L42.5 45.084C42.496 45.076 42.49 45.071 42.487 45.064C41.662 43.353 42.427 41.32 44.196 40.523C45.967 39.726 48.07 40.466 48.896 42.176C49.722 43.887 48.955 45.918 47.186 46.716Z" fill="#FFF0D3" fill-opacity="0.9"/>
<path d="M10.693 27.064C9.56501 27.074 8.65901 27.752 8.67401 28.58C8.69001 29.41 9.61301 30.072 10.741 30.064C11.866 30.054 12.772 29.373 12.758 28.544C12.742 27.715 11.821 27.053 10.693 27.064Z" fill="#FFF0D3" fill-opacity="0.9"/>
</svg>
